#!OML:ASF \\Waltz\H\Terrain\Patient Classification 1\Animal2\Wednesday\Animal2.ASF
:FULLY-SPECIFIED
:DEGREES
997
root 11.2904 17.7447 -7.15185 8.5952 -1.8745 -2.22623
lowerback 10.8609 -1.15408 3.19074
upperback 6.90759 -1.25838 -1.11989
thorax 1.02805 -0.511957 -2.83231
lowerneck 11.758 4.83914 16.2395
upperneck -7.53156 7.55721 -16.8273
head -2.83742 4.23081 -8.32223
rclavicle -8.94531e-015 -7.95139e-016
rhumerus -26.2182 3.39762 -74.4543
rradius 113.078
rwrist 3.94317
rhand 9.59286 13.2294
rfingers 7.12502
rthumb 34.7401 -13.387
lclavicle -8.94531e-015 -7.95139e-016
lhumerus -42.2374 12.592 48.1189
lradius 121.991
lwrist 40.7979
lhand -44.1858 33.6324
lfingers 7.12502
lthumb -17.0001 62.9085
rfemur -26.8007 -9.0613 12.9428
rtibia 62.5214
rfoot 4.56307 -4.27307
rtoes 34.1603
lfemur -27.963 7.12751 -12.5781
ltibia 47.8778
lfoot -13.9596 -3.07188
ltoes -34.2463
998
root 11.34 17.6983 -7.06739 8.47437 -2.07523 -1.9366
lowerback 10.7224 -1.37921 2.64265
upperback 6.8172 -1.60599 -1.21376
thorax 0.991262 -0.702616 -2.58743
lowerneck 11.9318 5.10309 16.2864
upperneck -7.96971 7.88399 -17.1911
head -2.91837 4.41721 -8.47802
rclavicle -9.14409e-015 7.55382e-015
rhumerus -26.939 2.70578 -73.6861
rradius 113.547
rwrist 5.04513
rhand 12.5252 13.8926
rfingers 7.12502
rthumb 37.5173 -12.0364
lclavicle -9.14409e-015 7.55382e-015
lhumerus -41.1668 12.4119 47.8543
lradius 122.352
lwrist 40.0422
lhand -43.2647 32.9816
lfingers 7.12502
lthumb -16.1133 62.3318
rfemur -28.614 -9.2999 12.3048
rtibia 65.3149
rfoot 6.47133 -3.99436
rtoes 34.9694
lfemur -26.1781 6.81978 -12.9606
ltibia 45.9376
lfoot -16.1104 -2.14116
ltoes -35.5309
999
root 11.389 17.6469 -6.98975 8.33334 -2.1458 -1.56734
lowerback 10.7521 -1.69266 2.01899
upperback 6.67688 -2.07165 -1.28243
thorax 0.813979 -0.956419 -2.25768
lowerneck 11.9799 5.38824 16.2032
upperneck -8.34812 8.20644 -17.5271
head -2.9668 4.60027 -8.59472
rclavicle -2.06736e-014 1.59028e-015
rhumerus -27.5068 2.16199 -72.7005
rradius 113.938
rwrist 5.89301
rhand 15.3294 14.8519
rfingers 7.12502
rthumb 40.1616 -10.3252
lclavicle -2.06736e-014 1.59028e-015
lhumerus -40.1837 12.2151 47.5187
lradius 122.738
lwrist 39.3325
lhand -42.7389 32.7967
lfingers 7.12502
lthumb -15.6069 62.187
rfemur -30.3883 -9.73176 11.6536
rtibia 68.0263
rfoot 8.22357 -3.3051
rtoes 32.2337
lfemur -24.6095 6.41691 -13.4905
ltibia 44.1243
lfoot -17.983 -0.960428
ltoes -37.9177
1000
root 11.4368 17.5906 -6.91456 8.1443 -2.11396 -1.22939
lowerback 10.8159 -2.02959 1.34531
upperback 6.56725 -2.57296 -1.26177
thorax 0.664981 -1.2286 -1.8022
lowerneck 12.2973 5.66603 15.9095
upperneck -9.04323 8.49293 -17.8286
head -3.16958 4.78047 -8.69306
rclavicle 2.78299e-015 1.43125e-014
rhumerus -27.8944 1.68004 -71.4693
rradius 114.445
rwrist 6.48219
rhand 18.0087 15.8778
rfingers 7.12502
rthumb 42.6758 -8.48171
lclavicle 2.78299e-015 1.43125e-014
lhumerus -39.1692 12.0647 47.3082
lradius 123.215
lwrist 38.921
lhand -42.6718 32.9838
lfingers 7.12502
lthumb -15.5422 62.3792
rfemur -32.0474 -10.0285 11.0382
rtibia 70.6348
rfoot 9.50555 -2.68942
rtoes 30.012
lfemur -23.2197 6.07998 -14.0519
ltibia 42.6461
lfoot -19.5954 0.197828
ltoes -39.2335
1001
root 11.4806 17.5254 -6.8417 7.87707 -1.93581 -1.11443
lowerback 10.9465 -2.37168 0.89552
upperback 6.46368 -3.062 -1.20239
thorax 0.491231 -1.48768 -1.43005
lowerneck 12.7571 5.8687 15.9301
upperneck -9.6953 8.74192 -18.2178
head -3.37139 4.94411 -8.88183
rclavicle -1.07344e-014 -1.03368e-014
rhumerus -28.2608 0.992274 -70.198
rradius 115.097
rwrist 7.21092
rhand 20.7406 16.7548
rfingers 7.12502
rthumb 45.2244 -6.65586
lclavicle -1.07344e-014 -1.03368e-014
lhumerus -37.7717 11.7865 46.9694
lradius 123.383
lwrist 38.59
lhand -42.5647 33.1328
lfingers 7.12502
lthumb -15.4392 62.5362
rfemur -33.5681 -10.1508 10.7167
rtibia 73.1201
rfoot 10.0771 -2.33884
rtoes 29.0838
lfemur -22.0521 5.94623 -14.3949
ltibia 41.6441
lfoot -21.0285 0.656003
ltoes -37.4071
1002
root 11.5234 17.4548 -6.7736 7.54868 -1.64946 -1.19318
lowerback 11.2049 -2.71103 0.742553
upperback 6.37038 -3.52103 -1.16063
thorax 0.251205 -1.72285 -1.2374
lowerneck 13.2508 5.98669 16.2094
upperneck -10.3151 8.93107 -18.5848
head -3.56814 5.06946 -9.11001
rclavicle 3.97569e-016 -7.95139e-016
rhumerus -28.7686 0.0962051 -68.9939
rradius 115.851
rwrist 8.20063
rhand 23.6709 17.6276
rfingers 7.12502
rthumb 47.9382 -4.61397
lclavicle 3.97569e-016 -7.95139e-016
lhumerus -35.999 11.4032 46.5021
lradius 123.337
lwrist 38.198
lhand -42.6889 33.0588
lfingers 7.12502
lthumb -15.5588 62.453
rfemur -34.9951 -10.3067 10.6643
rtibia 75.4697
rfoot 10.3811 -1.94657
rtoes 27.6239
lfemur -21.1191 5.97814 -14.5447
ltibia 41.1197
lfoot -22.5137 1.1243
ltoes -35.5425
1003
root 11.5646 17.3788 -6.71403 7.37763 -1.3102 -1.21639
lowerback 11.3994 -3.06896 0.52256
upperback 6.2391 -4.01155 -1.0869
thorax 0.0158758 -1.97499 -0.96914
lowerneck 13.6435 6.11189 16.246
upperneck -10.9434 9.08771 -18.7751
head -3.77713 5.17204 -9.23553
rclavicle 3.53837e-014 -7.15625e-015
rhumerus -29.2571 -0.687488 -67.6948
rradius 116.704
rwrist 9.02764
rhand 26.5539 18.7196
rfingers 7.12502
rthumb 50.5838 -2.19106
lclavicle 3.53837e-014 -7.15625e-015
lhumerus -34.2452 11.1176 46.2181
lradius 123.42
lwrist 37.7819
lhand -42.9299 32.8201
lfingers 7.12502
lthumb -15.7908 62.1961
rfemur -36.5632 -10.5984 10.5487
rtibia 77.7072
rfoot 10.6107 -1.76071
rtoes 27.5342
lfemur -20.572 6.06844 -14.7785
ltibia 40.9337
lfoot -23.9911 2.04795
ltoes -35.4317
